<svg width="144" height="21" viewBox="0 0 144 21" fill="none" xmlns="http://www.w3.org/2000/svg">
<path d="M8.448 17.288C6.88 17.288 5.528 16.952 4.392 16.28C3.256 15.592 2.376 14.624 1.752 13.376C1.144 12.112 0.84 10.632 0.84 8.936C0.84 7.24 1.184 5.776 1.872 4.544C2.56 3.312 3.512 2.36 4.728 1.688C5.96 1.016 7.384 0.68 9 0.68C10.408 0.68 11.672 0.96 12.792 1.52C13.928 2.08 14.816 2.904 15.456 3.992L12.192 5.336C11.936 4.92 11.536 4.56 10.992 4.256C10.464 3.952 9.784 3.8 8.952 3.8C8.2 3.8 7.512 3.992 6.888 4.376C6.264 4.76 5.768 5.336 5.4 6.104C5.032 6.856 4.848 7.8 4.848 8.936C4.848 10.616 5.232 11.912 6 12.824C6.768 13.72 7.776 14.168 9.024 14.168C9.616 14.168 10.184 14.088 10.728 13.928C11.272 13.752 11.72 13.464 12.072 13.064C12.424 12.664 12.6 12.128 12.6 11.456V11H9V7.928H16.392V17H13.896L13.368 15.224C12.344 16.6 10.704 17.288 8.448 17.288ZM21.93 17.288C21.178 17.288 20.49 17.144 19.866 16.856C19.242 16.568 18.746 16.168 18.378 15.656C18.01 15.128 17.826 14.504 17.826 13.784C17.826 12.808 18.162 12.032 18.834 11.456C19.522 10.88 20.458 10.448 21.642 10.16C22.826 9.872 24.186 9.672 25.722 9.56C25.722 8.712 25.586 8.112 25.314 7.76C25.042 7.408 24.514 7.232 23.73 7.232C23.234 7.232 22.794 7.352 22.41 7.592C22.042 7.816 21.794 8.168 21.666 8.648L18.594 7.544C18.994 6.744 19.658 6.08 20.586 5.552C21.53 5.024 22.682 4.76 24.042 4.76C25.738 4.76 27.042 5.136 27.954 5.888C28.866 6.64 29.322 7.92 29.322 9.728V12.344C29.322 12.856 29.338 13.408 29.37 14C29.402 14.592 29.45 15.152 29.514 15.68C29.578 16.208 29.65 16.648 29.73 17H26.346L25.914 15.56C25.466 16.184 24.898 16.632 24.21 16.904C23.538 17.16 22.778 17.288 21.93 17.288ZM23.274 14.792C23.994 14.792 24.594 14.6 25.074 14.216C25.554 13.832 25.794 13.096 25.794 12.008V11.72C24.53 11.832 23.514 12.008 22.746 12.248C21.978 12.472 21.594 12.896 21.594 13.52C21.594 13.904 21.754 14.216 22.074 14.456C22.394 14.68 22.794 14.792 23.274 14.792ZM36.7316 17C35.7556 17 34.9796 16.92 34.4036 16.76C33.8276 16.584 33.4116 16.256 33.1556 15.776C32.9156 15.28 32.7956 14.568 32.7956 13.64V7.88H30.8276V5.096H32.7956V2.12H36.4436V5.096H39.0356V7.88H36.4436V12.68C36.4436 13.24 36.5476 13.608 36.7556 13.784C36.9796 13.944 37.3876 14.024 37.9796 14.024H39.0356V17H36.7316ZM40.8094 17V0.967999H44.4574V6.68C44.7294 6.232 45.1774 5.8 45.8014 5.384C46.4414 4.968 47.2174 4.76 48.1294 4.76C49.6654 4.76 50.7134 5.192 51.2734 6.056C51.8494 6.904 52.1374 8.136 52.1374 9.752V17H48.4894V10.664C48.4894 10.104 48.4574 9.592 48.3934 9.128C48.3294 8.664 48.1694 8.296 47.9134 8.024C47.6734 7.736 47.2574 7.592 46.6654 7.592C45.8974 7.592 45.3374 7.872 44.9854 8.432C44.6334 8.976 44.4574 9.792 44.4574 10.88V17H40.8094ZM60.2603 17.288C58.9803 17.288 57.8443 17.04 56.8523 16.544C55.8763 16.032 55.1083 15.304 54.5483 14.36C54.0043 13.416 53.7323 12.288 53.7323 10.976C53.7323 9.712 54.0203 8.616 54.5963 7.688C55.1883 6.76 55.9643 6.04 56.9243 5.528C57.9003 5.016 58.9643 4.76 60.1163 4.76C61.4283 4.76 62.5483 5.072 63.4763 5.696C64.4203 6.304 65.1323 7.152 65.6123 8.24C66.0923 9.312 66.2923 10.552 66.2123 11.96H57.4043C57.4683 12.792 57.7723 13.416 58.3163 13.832C58.8763 14.248 59.4923 14.456 60.1643 14.456C60.7243 14.456 61.2043 14.376 61.6043 14.216C62.0203 14.04 62.3403 13.824 62.5643 13.568L65.4683 14.624C64.8443 15.536 64.0603 16.208 63.1163 16.64C62.1883 17.072 61.2363 17.288 60.2603 17.288ZM57.4043 9.8H62.8283C62.8123 9.032 62.5483 8.456 62.0363 8.072C61.5243 7.672 60.9163 7.472 60.2122 7.472C59.5243 7.472 58.9083 7.656 58.3643 8.024C57.8363 8.392 57.5163 8.984 57.4043 9.8ZM67.95 17V5.096H70.83L71.478 7.28C71.846 6.32 72.35 5.648 72.99 5.264C73.63 4.88 74.406 4.712 75.318 4.76V8.408C75.126 8.376 74.958 8.36 74.814 8.36C74.67 8.344 74.51 8.336 74.334 8.336C73.454 8.336 72.774 8.544 72.294 8.96C71.83 9.376 71.598 10.056 71.598 11V17H67.95Z" fill="#426FAB"/>
<path d="M83.2157 17.288C81.4717 17.288 79.9997 16.936 78.7997 16.232C77.6157 15.512 76.7757 14.512 76.2797 13.232L79.7357 11.984C79.9597 12.752 80.3757 13.32 80.9837 13.688C81.6077 14.056 82.3597 14.24 83.2397 14.24C83.7037 14.24 84.1517 14.192 84.5837 14.096C85.0157 13.984 85.3757 13.808 85.6637 13.568C85.9517 13.312 86.0957 12.976 86.0957 12.56C86.0957 12 85.8237 11.568 85.2797 11.264C84.7357 10.944 84.0317 10.704 83.1677 10.544L81.2237 10.16C80.3597 9.984 79.5517 9.72 78.7997 9.368C78.0637 9 77.4717 8.52 77.0237 7.928C76.5757 7.32 76.3517 6.56 76.3517 5.648C76.3517 4.784 76.5517 4.04 76.9517 3.416C77.3517 2.792 77.8797 2.28 78.5357 1.88C79.2077 1.48 79.9437 1.184 80.7437 0.991999C81.5437 0.783999 82.3437 0.68 83.1437 0.68C84.0077 0.68 84.8397 0.8 85.6397 1.04C86.4557 1.28 87.1837 1.656 87.8237 2.168C88.4637 2.664 88.9517 3.328 89.2877 4.16L85.8557 5.408C85.6477 4.864 85.2717 4.448 84.7277 4.16C84.1997 3.872 83.5597 3.728 82.8077 3.728C82.0717 3.728 81.4557 3.864 80.9597 4.136C80.4797 4.392 80.2397 4.768 80.2397 5.264C80.2397 5.664 80.4077 6.008 80.7437 6.296C81.0797 6.584 81.5197 6.784 82.0637 6.896L84.2237 7.328C84.8797 7.456 85.5437 7.624 86.2157 7.832C86.8877 8.024 87.5037 8.288 88.0637 8.624C88.6397 8.944 89.1037 9.376 89.4557 9.92C89.8077 10.464 89.9837 11.152 89.9837 11.984C89.9837 12.832 89.7837 13.592 89.3837 14.264C88.9997 14.92 88.4797 15.472 87.8237 15.92C87.1837 16.368 86.4637 16.712 85.6637 16.952C84.8637 17.176 84.0477 17.288 83.2157 17.288ZM91.7391 20.864V5.096H94.9071L95.3871 6.728C95.7711 6.072 96.3071 5.584 96.9951 5.264C97.6991 4.928 98.3711 4.76 99.0111 4.76C100.035 4.76 100.939 5.016 101.723 5.528C102.523 6.04 103.147 6.768 103.595 7.712C104.043 8.64 104.267 9.752 104.267 11.048C104.267 12.344 104.043 13.464 103.595 14.408C103.147 15.336 102.523 16.048 101.723 16.544C100.939 17.04 100.035 17.288 99.0111 17.288C98.3711 17.288 97.6991 17.12 96.9951 16.784C96.3071 16.448 95.7711 15.952 95.3871 15.296V20.864H91.7391ZM97.8591 14.456C98.5631 14.456 99.1711 14.168 99.6831 13.592C100.211 13.016 100.475 12.168 100.475 11.048C100.475 9.96 100.211 9.112 99.6831 8.504C99.1711 7.896 98.5631 7.592 97.8591 7.592C97.1391 7.592 96.5151 7.848 95.9871 8.36C95.4751 8.872 95.2191 9.744 95.2191 10.976C95.2191 12.192 95.4751 13.08 95.9871 13.64C96.5151 14.184 97.1391 14.456 97.8591 14.456ZM109.516 17.288C108.764 17.288 108.076 17.144 107.452 16.856C106.828 16.568 106.332 16.168 105.964 15.656C105.596 15.128 105.412 14.504 105.412 13.784C105.412 12.808 105.748 12.032 106.42 11.456C107.108 10.88 108.044 10.448 109.228 10.16C110.412 9.872 111.772 9.672 113.308 9.56C113.308 8.712 113.172 8.112 112.9 7.76C112.628 7.408 112.1 7.232 111.316 7.232C110.82 7.232 110.38 7.352 109.996 7.592C109.628 7.816 109.38 8.168 109.252 8.648L106.18 7.544C106.58 6.744 107.244 6.08 108.172 5.552C109.116 5.024 110.268 4.76 111.628 4.76C113.324 4.76 114.628 5.136 115.54 5.888C116.452 6.64 116.908 7.92 116.908 9.728V12.344C116.908 12.856 116.924 13.408 116.956 14C116.988 14.592 117.036 15.152 117.1 15.68C117.164 16.208 117.236 16.648 117.316 17H113.932L113.5 15.56C113.052 16.184 112.484 16.632 111.796 16.904C111.124 17.16 110.364 17.288 109.516 17.288ZM110.86 14.792C111.58 14.792 112.18 14.6 112.66 14.216C113.14 13.832 113.38 13.096 113.38 12.008V11.72C112.116 11.832 111.1 12.008 110.332 12.248C109.564 12.472 109.18 12.896 109.18 13.52C109.18 13.904 109.34 14.216 109.66 14.456C109.98 14.68 110.38 14.792 110.86 14.792ZM124.774 17.288C123.462 17.288 122.35 17.024 121.438 16.496C120.542 15.968 119.854 15.232 119.374 14.288C118.91 13.328 118.678 12.224 118.678 10.976C118.678 9.728 118.934 8.64 119.446 7.712C119.958 6.768 120.67 6.04 121.582 5.528C122.51 5.016 123.574 4.76 124.774 4.76C125.462 4.76 126.142 4.856 126.814 5.048C127.502 5.24 128.134 5.568 128.71 6.032C129.302 6.48 129.782 7.096 130.15 7.88L127.102 8.984C126.91 8.472 126.622 8.112 126.238 7.904C125.87 7.696 125.454 7.592 124.99 7.592C124.558 7.592 124.142 7.704 123.742 7.928C123.342 8.136 123.014 8.488 122.758 8.984C122.518 9.48 122.398 10.152 122.398 11C122.398 11.864 122.526 12.552 122.782 13.064C123.038 13.56 123.358 13.92 123.742 14.144C124.142 14.352 124.558 14.456 124.99 14.456C125.502 14.456 125.934 14.36 126.286 14.168C126.638 13.96 126.918 13.68 127.126 13.328L130.102 14.408C129.702 15.128 129.206 15.704 128.614 16.136C128.022 16.552 127.39 16.848 126.718 17.024C126.062 17.2 125.414 17.288 124.774 17.288ZM137.674 17.288C136.394 17.288 135.258 17.04 134.266 16.544C133.29 16.032 132.522 15.304 131.962 14.36C131.418 13.416 131.146 12.288 131.146 10.976C131.146 9.712 131.434 8.616 132.01 7.688C132.602 6.76 133.378 6.04 134.338 5.528C135.314 5.016 136.378 4.76 137.53 4.76C138.842 4.76 139.962 5.072 140.89 5.696C141.834 6.304 142.546 7.152 143.026 8.24C143.506 9.312 143.706 10.552 143.626 11.96H134.818C134.882 12.792 135.186 13.416 135.73 13.832C136.29 14.248 136.906 14.456 137.578 14.456C138.138 14.456 138.618 14.376 139.018 14.216C139.434 14.04 139.754 13.824 139.978 13.568L142.882 14.624C142.258 15.536 141.474 16.208 140.53 16.64C139.602 17.072 138.65 17.288 137.674 17.288ZM134.818 9.8H140.242C140.226 9.032 139.962 8.456 139.45 8.072C138.938 7.672 138.33 7.472 137.626 7.472C136.938 7.472 136.322 7.656 135.778 8.024C135.25 8.392 134.93 8.984 134.818 9.8Z" fill="#838C9D"/>
</svg>
